<svg width="60" height="60" viewBox="0 0 60 60" fill="none" xmlns="http://www.w3.org/2000/svg">
<path d="M53.7787 32.9045V32.8845C53.7787 32.8845 53.7787 32.8745 53.7787 32.8645C53.2052 29.1651 51.7263 25.7557 49.7644 22.6962C49.5129 22.3063 49.2614 21.9263 48.9998 21.5464C48.869 21.3664 48.7382 21.1765 48.6074 20.9965C46.0822 17.5071 38.0939 8.02866 33.8986 3.08948C32.309 1.2198 31.2727 0 31.2727 0C30.7998 0.379937 30.337 0.769872 29.8843 1.16981H29.8642C26.5944 4.2193 23.878 7.8087 21.8457 11.768C21.4534 12.5479 21.0912 13.3278 20.7491 14.1176C19.9644 15.9473 19.3205 17.847 18.8376 19.7767C18.5458 20.9465 18.3043 22.1363 18.1232 23.3461C17.1172 23.1861 16.101 23.0862 15.0849 23.0662C14.8937 23.0662 14.7026 23.0662 14.5114 23.0662C12.8514 23.0662 11.1914 23.2461 9.57158 23.6161C8.57556 25.2058 7.78076 26.9155 7.19723 28.6852C6.40243 31.0948 6 33.6144 6 36.144C6 47.722 14.3001 57.3804 25.3167 59.5401C26.8661 59.84 28.4356 60 30.005 60C30.3169 60 30.6288 60 30.9306 59.98C31.7355 59.95 32.5403 59.88 33.3251 59.77C35.1562 59.5201 36.957 59.0502 38.6774 58.3903C39.1402 58.2103 39.593 58.0203 40.0356 57.8204C48.2754 54.041 54 45.7624 54 36.144C54 35.0642 53.9195 33.9843 53.7686 32.9045H53.7787ZM22.2582 54.3509C19.8939 53.3611 17.751 51.9213 15.9401 50.1116C14.1191 48.312 12.6804 46.1823 11.6743 43.8327C10.638 41.4031 10.1048 38.7835 10.1149 36.144C10.1149 33.5044 10.638 30.8849 11.6743 28.4553C11.8353 28.0653 12.0163 27.6854 12.2075 27.3055C12.9721 27.2055 13.7367 27.1655 14.5014 27.1655C15.5779 27.1655 16.6644 27.2555 17.7208 27.4454C17.7007 27.9753 17.6906 28.5153 17.6906 29.0552C17.6806 39.0935 21.6646 48.7419 28.7776 55.8707C26.5341 55.7407 24.3307 55.2308 22.2582 54.3609V54.3509ZM31.0715 52.3313C30.5886 51.8214 30.1258 51.3015 29.6831 50.7615C27.5502 48.202 25.7996 45.3524 24.5018 42.2929C22.721 38.1036 21.8055 33.5944 21.8156 29.0452V28.6752C23.8579 29.5751 25.7191 30.8449 27.2886 32.4146C29.7334 34.8342 31.4236 37.8937 32.1681 41.2431C32.4498 42.5129 32.5907 43.8127 32.5907 45.1125C32.5907 47.5921 32.0876 50.0517 31.0916 52.3313H31.0715ZM49.9053 36.8239C49.7745 40.5432 48.5974 44.1426 46.5047 47.2221C44.8044 49.7217 42.5408 51.8014 39.9149 53.3111H39.8847C39.1905 53.6911 38.4762 54.041 37.7418 54.3509C36.8262 54.7409 35.8805 55.0508 34.9147 55.2908C34.7437 55.3308 34.5726 55.3708 34.4016 55.4108C34.311 55.4308 34.2205 55.4508 34.1199 55.4708C34.1601 55.4008 34.1903 55.3408 34.2306 55.2708C34.2809 55.1708 34.3412 55.0708 34.3915 54.9608C35.0254 53.711 35.5284 52.4013 35.9007 51.0515C36.4439 49.1218 36.7156 47.1221 36.7156 45.1125C36.7156 43.6527 36.5747 42.193 36.283 40.7632C34.7537 33.1745 29.3108 26.9955 22.1375 24.3859C22.4695 21.9763 23.0631 19.5967 23.9082 17.3171C24.0993 16.8072 24.3006 16.2973 24.5118 15.7974C24.8338 15.0375 25.1859 14.2876 25.5582 13.5577C25.5582 13.5577 25.5582 13.5577 25.5582 13.5477C25.7091 13.2278 25.87 12.9178 26.0411 12.5979C27.3389 10.1483 28.9688 7.88869 30.8904 5.88902L30.9206 5.92901C32.6208 7.93868 34.9046 10.6382 37.1683 13.3578C38.3253 14.7475 39.4924 16.1473 40.5689 17.4671C42.5911 19.9367 44.3316 22.1063 45.2672 23.3961C45.398 23.5861 45.5288 23.766 45.6596 23.956C47.0078 25.9057 48.0541 27.8654 48.7583 29.815C49.2111 31.0448 49.533 32.3146 49.7242 33.6044V33.6244C49.8851 34.6842 49.9455 35.764 49.9053 36.8339V36.8239Z" fill="white"/>
</svg>
