<svg width="60" height="60" viewBox="0 0 60 60" fill="none" xmlns="http://www.w3.org/2000/svg">
<g clip-path="url(#clip0_102603_3021)">
<g clip-path="url(#clip1_102603_3021)">
<path d="M34.5048 59.003C32.9717 60.9327 29.8626 59.8767 29.8251 57.4109L29.2837 21.3616H53.5238C57.9141 21.3616 60.3638 26.4326 57.6353 29.8687L34.5048 59.003Z" fill="url(#paint0_linear_102603_3021)"/>
<path d="M34.5048 59.003C32.9717 60.9327 29.8626 59.8767 29.8251 57.4109L29.2837 21.3616H53.5238C57.9141 21.3616 60.3638 26.4326 57.6353 29.8687L34.5048 59.003Z" fill="url(#paint1_linear_102603_3021)" fill-opacity="0.2"/>
<path d="M24.6464 0.997011C26.1795 -0.932767 29.2886 0.12325 29.3262 2.58908L29.562 38.6384H5.62741C1.23717 38.6384 -1.21258 33.5674 1.51591 30.1313L24.6464 0.997011Z" fill="white"/>
</g>
</g>
<defs>
<linearGradient id="paint0_linear_102603_3021" x1="27.3432" y1="34.0016" x2="48.887" y2="43.034" gradientUnits="userSpaceOnUse">
<stop stop-color="#CCCECE"/>
<stop offset="1" stop-color="white"/>
</linearGradient>
<linearGradient id="paint1_linear_102603_3021" x1="28.3724" y1="11.6912" x2="38.1982" y2="30.1849" gradientUnits="userSpaceOnUse">
<stop/>
<stop offset="1" stop-opacity="0"/>
</linearGradient>
<clipPath id="clip0_102603_3021">
<rect width="60" height="60" fill="white"/>
</clipPath>
<clipPath id="clip1_102603_3021">
<rect width="58.4187" height="60" fill="white" transform="translate(0.369141)"/>
</clipPath>
</defs>
</svg>
