<svg width="21" height="20" viewBox="0 0 21 20" fill="none" xmlns="http://www.w3.org/2000/svg">
<g clip-path="url(#clip0_102603_3146)">
<path d="M11.3786 19.6676C10.8675 20.3109 9.83116 19.9589 9.81865 19.1369L9.63818 7.12048H17.7182C19.1816 7.12048 19.9982 8.81083 19.0887 9.95618L11.3786 19.6676Z" fill="url(#paint0_linear_102603_3146)"/>
<path d="M11.3786 19.6676C10.8675 20.3109 9.83116 19.9589 9.81865 19.1369L9.63818 7.12048H17.7182C19.1816 7.12048 19.9982 8.81083 19.0887 9.95618L11.3786 19.6676Z" fill="url(#paint1_linear_102603_3146)" fill-opacity="0.2"/>
<path d="M8.09227 0.332296C8.6033 -0.310963 9.63967 0.0410428 9.65217 0.862985L9.73079 12.8794H1.75259C0.28918 12.8794 -0.527402 11.1891 0.382095 10.0437L8.09227 0.332296Z" fill="#3DCFB6"/>
</g>
<defs>
<linearGradient id="paint0_linear_102603_3146" x1="8.99135" y1="11.3338" x2="16.1726" y2="14.3446" gradientUnits="userSpaceOnUse">
<stop stop-color="#189A84"/>
<stop offset="1" stop-color="#3DCFB6"/>
</linearGradient>
<linearGradient id="paint1_linear_102603_3146" x1="9.33442" y1="3.89704" x2="12.6097" y2="10.0616" gradientUnits="userSpaceOnUse">
<stop/>
<stop offset="1" stop-opacity="0"/>
</linearGradient>
<clipPath id="clip0_102603_3146">
<rect width="19.4729" height="20" fill="white"/>
</clipPath>
</defs>
</svg>
